<svg version="1.2" xmlns="http://www.w3.org/2000/svg" viewBox="0 0 172 172" width="172" height="172"><style>.a{fill:#02a9ff}.b{fill:#fefefe}</style><path fill-rule="evenodd" class="a" d="m85 48.7c0 0.1 30.7 88.7 30.8 88.7 15.4 0 32.3 0 32.3 0 4 0 6.2-2.3 6.2-6.3v-13.7c0-4-2.2-6.2-6.2-6.2h-36.8v-70.2c0-4-2.2-6.2-6.2-6.2h-13.7c-4.1 0-6.3 2.2-6.3 6.2 0 0-0.1 7.2-0.1 7.7z"/><path fill-rule="evenodd" class="b" d="m80.8 34.8l35.9 102.6h-27.8l-6-17.8h-30.5l-6.1 17.8h-28l36.1-102.6zm-3.8 62.1l-9.5-28.4-8.8 28.4z"/></svg>